<svg width="990" height="279" viewBox="0 0 990 279" fill="none" xmlns="http://www.w3.org/2000/svg">
<path d="M134.047 122.307C134.047 128.5 132.425 134.584 129.342 139.954C126.259 145.324 121.822 149.793 116.475 152.915C111.128 156.038 105.055 157.705 98.8635 157.751C92.6711 157.796 86.575 156.219 81.1823 153.176C77.5567 155.84 73.2446 157.411 68.7553 157.703C64.266 157.994 59.7866 156.995 55.8468 154.824C50.9594 156.772 45.7437 157.766 40.4822 157.752C18.1598 157.752 0 140.139 0 118.488C0 96.8373 18.1598 79.2241 40.4822 79.2241H40.4916C44.9102 71.8515 51.4632 65.9941 59.2833 62.4267C67.1033 58.8594 75.8218 57.7502 84.2862 59.2459C92.7505 60.7416 100.561 64.7718 106.685 70.8032C112.808 76.8347 116.957 84.5831 118.581 93.0236C123.365 96.2604 127.278 100.625 129.975 105.732C132.672 110.839 134.071 116.532 134.047 122.307ZM80.8234 144.091C81.6474 144.091 82.4521 144.341 83.1301 144.809C86.1397 146.877 89.534 148.321 93.1114 149.055C96.6889 149.788 100.377 149.797 103.958 149.08C107.538 148.363 110.939 146.935 113.959 144.881C116.978 142.827 119.555 140.188 121.536 137.12C123.518 134.053 124.864 130.619 125.496 127.022C126.127 123.426 126.031 119.739 125.213 116.18C124.394 112.621 122.87 109.262 120.731 106.302C118.592 103.343 115.881 100.842 112.758 98.9484C112.246 98.6373 111.809 98.217 111.479 97.7174C111.148 97.2178 110.932 96.6514 110.845 96.0585C109.79 88.8772 106.486 82.2154 101.406 77.0309C96.326 71.8464 89.733 68.4062 82.5752 67.2051C75.4168 66.004 68.0623 67.1038 61.5681 70.3463C55.0744 73.5888 49.7765 78.807 46.4353 85.2507C46.074 85.9505 45.5165 86.5299 44.8311 86.9178C44.1456 87.3057 43.3619 87.4854 42.5759 87.4348C41.7718 87.3851 41.1052 87.3613 40.4787 87.3613C22.6416 87.3613 8.1298 101.326 8.1298 118.49C8.1298 135.654 22.6436 149.618 40.4787 149.618C45.3098 149.634 50.0858 148.59 54.4703 146.562C55.1117 146.266 55.819 146.141 56.5229 146.201C57.2268 146.261 57.9028 146.503 58.4846 146.904C61.4252 148.926 64.9758 149.866 68.5319 149.563C72.0875 149.26 75.4282 147.734 77.9846 145.243C78.7446 144.504 79.7631 144.09 80.8234 144.091Z" fill="#4F80E1"/>
<path d="M45.7618 104.107H39.7163C39.4757 104.107 39.2451 104.203 39.075 104.373C38.9049 104.543 38.8094 104.774 38.8094 105.014V119.221H38.8248L46.6677 111.378V105.015C46.6678 104.774 46.5725 104.544 46.4025 104.374C46.2327 104.203 46.0022 104.108 45.7618 104.107Z" fill="white"/>
<path d="M70.5219 97.4806C69.6026 96.5612 68.3552 96.0447 67.0552 96.0447C65.7546 96.0447 64.5077 96.5612 63.5884 97.4806L48.197 112.872L46.6686 114.401L38.8257 122.244L20.8506 140.219C25.6508 143.729 31.3015 145.893 37.2184 146.487C43.1353 147.081 49.1034 146.084 54.5056 143.598C55.1469 143.302 55.8537 143.178 56.5576 143.237C57.261 143.297 57.9371 143.54 58.5188 143.94C61.4589 145.962 65.0101 146.902 68.5657 146.599C72.1213 146.296 75.4619 144.769 78.0178 142.279C78.6929 141.623 79.5745 141.221 80.5122 141.142C81.4503 141.063 82.3865 141.311 83.1619 141.845C87.7902 145.033 93.2911 146.713 98.9107 146.653C104.53 146.593 109.994 144.799 114.554 141.513L70.5219 97.4806ZM66.6923 134.495C66.6923 134.679 66.6188 134.855 66.4888 134.986C66.3582 135.116 66.1815 135.19 65.9974 135.19H60.35C60.1658 135.19 59.9891 135.116 59.8586 134.986C59.728 134.855 59.6551 134.679 59.6551 134.495V128.847C59.6551 128.663 59.728 128.486 59.8586 128.356C59.9891 128.226 60.1658 128.152 60.35 128.152H65.9974C66.1815 128.152 66.3582 128.226 66.4888 128.356C66.6188 128.486 66.6923 128.663 66.6923 128.847V134.495ZM66.6923 125.942C66.6923 126.126 66.6188 126.303 66.4888 126.433C66.3582 126.564 66.1815 126.637 65.9974 126.637H60.35C60.1658 126.637 59.9891 126.564 59.8586 126.433C59.728 126.303 59.6551 126.126 59.6551 125.942V120.294C59.6551 120.11 59.728 119.934 59.8586 119.803C59.9891 119.673 60.1658 119.6 60.35 119.6H65.9974C66.1815 119.6 66.3582 119.673 66.4888 119.803C66.6188 119.934 66.6923 120.11 66.6923 120.294V125.942ZM75.7498 134.495C75.7498 134.679 75.6764 134.855 75.5463 134.986C75.4158 135.116 75.2391 135.19 75.0549 135.19H69.4075C69.2234 135.19 69.0467 135.116 68.9161 134.986C68.7856 134.855 68.7126 134.679 68.7126 134.495V128.847C68.7126 128.663 68.7856 128.486 68.9161 128.356C69.0467 128.226 69.2234 128.152 69.4075 128.152H75.0549C75.2391 128.152 75.4158 128.226 75.5463 128.356C75.6764 128.486 75.7498 128.663 75.7498 128.847V134.495ZM75.7498 125.942C75.7498 126.126 75.6764 126.303 75.5463 126.433C75.4158 126.564 75.2391 126.637 75.0549 126.637H69.4075C69.2234 126.637 69.0467 126.564 68.9161 126.433C68.7856 126.303 68.7126 126.126 68.7126 125.942V120.294C68.7126 120.11 68.7856 119.934 68.9161 119.803C69.0467 119.673 69.2234 119.6 69.4075 119.6H75.0549C75.2391 119.6 75.4158 119.673 75.5463 119.803C75.6764 119.934 75.7498 120.11 75.7498 120.294V125.942Z" fill="white"/>
<path d="M160.752 107.312C160.752 97.3281 162.912 88.4481 167.232 80.6721C171.552 72.8001 177.552 66.7041 185.232 62.3841C193.008 57.9681 201.792 55.7601 211.584 55.7601C223.584 55.7601 233.856 58.9281 242.4 65.2641C250.944 71.6001 256.656 80.2401 259.536 91.1841H232.464C230.448 86.9601 227.568 83.7441 223.824 81.5361C220.176 79.3281 216 78.2241 211.296 78.2241C203.712 78.2241 197.568 80.8641 192.864 86.1441C188.16 91.4241 185.808 98.4801 185.808 107.312C185.808 116.144 188.16 123.2 192.864 128.48C197.568 133.76 203.712 136.4 211.296 136.4C216 136.4 220.176 135.296 223.824 133.088C227.568 130.88 230.448 127.664 232.464 123.44H259.536C256.656 134.384 250.944 143.024 242.4 149.36C233.856 155.6 223.584 158.72 211.584 158.72C201.792 158.72 193.008 156.56 185.232 152.24C177.552 147.824 171.552 141.728 167.232 133.952C162.912 126.176 160.752 117.296 160.752 107.312ZM337.544 140.144H299.816L293.768 158H267.992L304.568 56.9121H333.08L369.656 158H343.592L337.544 140.144ZM331.208 121.136L318.68 84.1281L306.296 121.136H331.208ZM405.411 138.992H437.667V158H380.787V56.9121H405.411V138.992ZM445.236 107.312C445.236 97.3281 447.396 88.4481 451.716 80.6721C456.036 72.8001 462.036 66.7041 469.716 62.3841C477.492 57.9681 486.276 55.7601 496.068 55.7601C508.068 55.7601 518.34 58.9281 526.884 65.2641C535.428 71.6001 541.14 80.2401 544.02 91.1841H516.948C514.932 86.9601 512.052 83.7441 508.308 81.5361C504.66 79.3281 500.484 78.2241 495.78 78.2241C488.196 78.2241 482.052 80.8641 477.348 86.1441C472.644 91.4241 470.292 98.4801 470.292 107.312C470.292 116.144 472.644 123.2 477.348 128.48C482.052 133.76 488.196 136.4 495.78 136.4C500.484 136.4 504.66 135.296 508.308 133.088C512.052 130.88 514.932 127.664 516.948 123.44H544.02C541.14 134.384 535.428 143.024 526.884 149.36C518.34 155.6 508.068 158.72 496.068 158.72C486.276 158.72 477.492 156.56 469.716 152.24C462.036 147.824 456.036 141.728 451.716 133.952C447.396 126.176 445.236 117.296 445.236 107.312ZM583.292 56.9121V117.392C583.292 123.44 584.78 128.096 587.756 131.36C590.732 134.624 595.1 136.256 600.86 136.256C606.62 136.256 611.036 134.624 614.108 131.36C617.18 128.096 618.716 123.44 618.716 117.392V56.9121H643.34V117.248C643.34 126.272 641.42 133.904 637.58 140.144C633.74 146.384 628.556 151.088 622.028 154.256C615.596 157.424 608.396 159.008 600.428 159.008C592.46 159.008 585.308 157.472 578.972 154.4C572.732 151.232 567.788 146.528 564.14 140.288C560.492 133.952 558.668 126.272 558.668 117.248V56.9121H583.292ZM685.255 138.992H717.511V158H660.631V56.9121H685.255V138.992ZM792.184 140.144H754.456L748.408 158H722.632L759.208 56.9121H787.72L824.296 158H798.232L792.184 140.144ZM785.848 121.136L773.32 84.1281L760.936 121.136H785.848ZM908.148 56.9121V76.6401H881.364V158H856.74V76.6401H829.956V56.9121H908.148ZM945.13 76.6401V97.0881H978.106V116.096H945.13V138.272H982.426V158H920.506V56.9121H982.426V76.6401H945.13Z" fill="white"/>
<path d="M63.744 173.608L40.416 218.728V241H24V218.728L0.672 173.608H19.296L32.352 201.832L45.312 173.608H63.744ZM124.79 241.672C118.454 241.672 112.63 240.2 107.318 237.256C102.07 234.312 97.8782 230.216 94.7422 224.968C91.6702 219.656 90.1342 213.704 90.1342 207.112C90.1342 200.52 91.6702 194.6 94.7422 189.352C97.8782 184.104 102.07 180.008 107.318 177.064C112.63 174.12 118.454 172.648 124.79 172.648C131.126 172.648 136.918 174.12 142.166 177.064C147.478 180.008 151.638 184.104 154.646 189.352C157.718 194.6 159.254 200.52 159.254 207.112C159.254 213.704 157.718 219.656 154.646 224.968C151.574 230.216 147.414 234.312 142.166 237.256C136.918 240.2 131.126 241.672 124.79 241.672ZM124.79 226.696C130.166 226.696 134.454 224.904 137.654 221.32C140.918 217.736 142.55 213 142.55 207.112C142.55 201.16 140.918 196.424 137.654 192.904C134.454 189.32 130.166 187.528 124.79 187.528C119.35 187.528 114.998 189.288 111.734 192.808C108.534 196.328 106.934 201.096 106.934 207.112C106.934 213.064 108.534 217.832 111.734 221.416C114.998 224.936 119.35 226.696 124.79 226.696ZM207.075 173.608V213.928C207.075 217.96 208.067 221.064 210.051 223.24C212.035 225.416 214.947 226.504 218.787 226.504C222.627 226.504 225.571 225.416 227.619 223.24C229.667 221.064 230.691 217.96 230.691 213.928V173.608H247.107V213.832C247.107 219.848 245.827 224.936 243.267 229.096C240.707 233.256 237.251 236.392 232.899 238.504C228.611 240.616 223.811 241.672 218.499 241.672C213.187 241.672 208.419 240.648 204.195 238.6C200.035 236.488 196.739 233.352 194.307 229.192C191.875 224.968 190.659 219.848 190.659 213.832V173.608H207.075ZM315.562 241L301.546 215.56H297.61V241H281.194V173.608H308.746C314.058 173.608 318.57 174.536 322.282 176.392C326.058 178.248 328.874 180.808 330.73 184.072C332.586 187.272 333.514 190.856 333.514 194.824C333.514 199.304 332.234 203.304 329.674 206.824C327.178 210.344 323.466 212.84 318.538 214.312L334.09 241H315.562ZM297.61 203.944H307.786C310.794 203.944 313.034 203.208 314.506 201.736C316.042 200.264 316.81 198.184 316.81 195.496C316.81 192.936 316.042 190.92 314.506 189.448C313.034 187.976 310.794 187.24 307.786 187.24H297.61V203.944ZM451.523 173.608V219.496C451.523 226.6 449.507 232.072 445.475 235.912C441.507 239.752 436.131 241.672 429.347 241.672C422.243 241.672 416.547 239.656 412.259 235.624C407.971 231.592 405.827 225.864 405.827 218.44H422.147C422.147 221.256 422.723 223.4 423.875 224.872C425.027 226.28 426.691 226.984 428.867 226.984C430.851 226.984 432.387 226.344 433.475 225.064C434.563 223.784 435.107 221.928 435.107 219.496V173.608H451.523ZM519.215 241.672C512.879 241.672 507.055 240.2 501.743 237.256C496.495 234.312 492.303 230.216 489.167 224.968C486.095 219.656 484.559 213.704 484.559 207.112C484.559 200.52 486.095 194.6 489.167 189.352C492.303 184.104 496.495 180.008 501.743 177.064C507.055 174.12 512.879 172.648 519.215 172.648C525.551 172.648 531.343 174.12 536.591 177.064C541.903 180.008 546.063 184.104 549.071 189.352C552.143 194.6 553.679 200.52 553.679 207.112C553.679 213.704 552.143 219.656 549.071 224.968C545.999 230.216 541.839 234.312 536.591 237.256C531.343 240.2 525.551 241.672 519.215 241.672ZM519.215 226.696C524.591 226.696 528.879 224.904 532.079 221.32C535.343 217.736 536.975 213 536.975 207.112C536.975 201.16 535.343 196.424 532.079 192.904C528.879 189.32 524.591 187.528 519.215 187.528C513.775 187.528 509.423 189.288 506.159 192.808C502.959 196.328 501.359 201.096 501.359 207.112C501.359 213.064 502.959 217.832 506.159 221.416C509.423 224.936 513.775 226.696 519.215 226.696ZM601.5 173.608V213.928C601.5 217.96 602.492 221.064 604.476 223.24C606.46 225.416 609.372 226.504 613.212 226.504C617.052 226.504 619.996 225.416 622.044 223.24C624.092 221.064 625.116 217.96 625.116 213.928V173.608H641.532V213.832C641.532 219.848 640.252 224.936 637.692 229.096C635.132 233.256 631.676 236.392 627.324 238.504C623.036 240.616 618.236 241.672 612.924 241.672C607.612 241.672 602.844 240.648 598.62 238.6C594.46 236.488 591.164 233.352 588.732 229.192C586.3 224.968 585.084 219.848 585.084 213.832V173.608H601.5ZM709.987 241L695.971 215.56H692.035V241H675.619V173.608H703.171C708.483 173.608 712.995 174.536 716.707 176.392C720.483 178.248 723.299 180.808 725.155 184.072C727.011 187.272 727.939 190.856 727.939 194.824C727.939 199.304 726.659 203.304 724.099 206.824C721.603 210.344 717.891 212.84 712.963 214.312L728.515 241H709.987ZM692.035 203.944H702.211C705.219 203.944 707.459 203.208 708.931 201.736C710.467 200.264 711.235 198.184 711.235 195.496C711.235 192.936 710.467 190.92 708.931 189.448C707.459 187.976 705.219 187.24 702.211 187.24H692.035V203.944ZM821.092 241H804.676L777.22 199.432V241H760.804V173.608H777.22L804.676 215.368V173.608H821.092V241ZM871.968 186.76V200.392H893.952V213.064H871.968V227.848H896.832V241H855.552V173.608H896.832V186.76H871.968ZM987.841 173.608L964.513 218.728V241H948.097V218.728L924.769 173.608H943.393L956.449 201.832L969.409 173.608H987.841Z" fill="white"/>
</svg>
